<?xml version="1.0" standalone="no"?>
<!DOCTYPE svg PUBLIC "-//W3C//DTD SVG 20010904//EN"
 "http://www.w3.org/TR/2001/REC-SVG-20010904/DTD/svg10.dtd">
<svg version="1.0" xmlns="http://www.w3.org/2000/svg"
 width="500.000000pt" height="114.000000pt" viewBox="0 0 600.000000 114.000000"
 preserveAspectRatio="xMidYMid meet">

<g transform="translate(0.000000,114.000000) scale(0.100000,-0.100000)"
fill="#ffffff" stroke="none">
<path d="M640 1088 c10 -28 17 -55 14 -60 -3 -4 -1 -8 3 -8 5 0 76 -182 158
-405 83 -223 152 -405 155 -405 4 1 206 538 248 658 3 10 -3 13 -19 10 -22 -3
-33 -29 -119 -263 -121 -329 -111 -306 -120 -275 -4 14 -47 131 -94 260 -47
129 -87 242 -89 250 -1 8 -4 17 -7 20 -3 3 -13 30 -23 60 -10 30 -23 64 -28
75 -4 11 -18 46 -29 78 -18 48 -25 57 -46 57 l-24 0 20 -52z"/>
<path d="M1528 1063 c7 -3 16 -2 19 1 4 3 -2 6 -13 5 -11 0 -14 -3 -6 -6z"/>
<path d="M1748 1053 c7 -3 16 -2 19 1 4 3 -2 6 -13 5 -11 0 -14 -3 -6 -6z"/>
<path d="M78 1021 c-53 -34 -68 -56 -68 -102 0 -23 9 -40 36 -65 19 -19 41
-34 47 -34 7 0 0 10 -15 21 -15 11 -32 36 -38 55 -17 50 2 89 59 125 25 16 40
29 35 29 -6 0 -31 -13 -56 -29z"/>
<path d="M1788 1043 c7 -3 16 -2 19 1 4 3 -2 6 -13 5 -11 0 -14 -3 -6 -6z"/>
<path d="M1429 1023 c-13 -16 -12 -17 4 -4 16 13 21 21 13 21 -2 0 -10 -8 -17
-17z"/>
<path d="M2020 970 c431 -150 555 -185 699 -196 155 -11 369 25 564 96 48 18
86 34 84 37 -2 2 -29 -6 -58 -18 -115 -45 -256 -70 -424 -76 -145 -5 -172 -3
-285 21 -69 14 -186 43 -260 64 -74 22 -205 60 -291 85 -242 71 -254 65 -29
-13z"/>
<path d="M1085 963 c-16 -2 -72 -15 -123 -30 -79 -22 -95 -23 -110 -12 -15 13
-16 12 -3 -3 12 -16 10 -19 -10 -27 -37 -15 -4 -13 43 3 81 27 149 36 261 36
165 0 308 -38 333 -88 10 -20 12 -21 18 -6 13 35 -58 96 -128 110 -114 23
-199 28 -281 17z"/>
<path d="M3710 574 l0 -306 143 4 c158 5 198 16 256 71 112 106 114 365 4 469
-58 56 -104 68 -260 68 l-143 0 0 -306z m295 255 c115 -32 176 -200 129 -358
-32 -111 -122 -161 -286 -161 l-88 0 0 265 0 265 103 0 c56 0 120 -5 142 -11z"/>
<path d="M930 836 c0 -2 8 -10 18 -17 15 -13 16 -12 3 4 -13 16 -21 21 -21 13z"/>
<path d="M976 767 c3 -10 9 -15 12 -12 3 3 0 11 -7 18 -10 9 -11 8 -5 -6z"/>
<path d="M991 700 c-1 -25 -10 -69 -21 -98 -11 -29 -19 -73 -19 -100 2 -32 3
-37 6 -17 2 17 16 65 30 107 21 64 24 83 15 115 l-10 38 -1 -45z"/>
<path d="M1286 710 c-50 -16 -96 -73 -96 -120 0 -33 37 -26 45 10 8 36 57 79
93 82 76 4 109 -7 132 -45 25 -40 25 -59 2 -87 -14 -17 -34 -24 -100 -31 -149
-17 -192 -49 -192 -145 0 -39 5 -51 34 -80 32 -32 38 -34 100 -34 70 0 108 13
140 49 23 26 36 27 36 3 0 -26 20 -42 52 -42 33 0 39 25 8 33 -19 5 -20 14
-20 156 0 166 -9 207 -54 236 -30 20 -137 29 -180 15z m167 -342 c-31 -54 -67
-73 -135 -73 -53 0 -62 3 -84 28 -28 33 -32 82 -9 114 17 25 60 38 151 48 33
4 67 11 75 15 23 15 25 -93 2 -132z"/>
<path d="M1730 709 c-14 -6 -37 -22 -52 -36 l-28 -27 0 32 c0 25 -4 32 -20 32
-19 0 -20 -7 -20 -218 0 -120 3 -221 6 -225 3 -3 12 -3 20 0 11 4 14 35 14
151 0 125 3 152 20 187 37 76 128 102 179 51 26 -26 26 -28 31 -208 4 -163 7
-181 23 -184 15 -2 17 10 17 139 0 154 9 203 43 243 38 44 134 49 168 8 10
-13 15 -66 19 -203 5 -178 6 -186 25 -186 19 0 20 7 20 175 0 195 -6 218 -64
257 -60 41 -147 26 -193 -32 l-20 -25 -20 25 c-39 50 -108 68 -168 44z"/>
<path d="M2415 705 c-16 -9 -42 -28 -57 -43 l-28 -26 0 37 c0 30 -4 37 -20 37
-20 0 -20 -7 -20 -300 0 -293 0 -300 20 -300 19 0 20 7 20 112 l0 112 28 -26
c42 -39 66 -48 132 -48 126 0 193 78 193 226 0 86 -28 152 -84 197 -47 36
-137 47 -184 22z m150 -44 c73 -40 101 -199 52 -291 -55 -104 -200 -108 -258
-7 -19 35 -24 56 -24 122 0 70 4 86 28 128 15 26 29 47 30 47 1 0 20 7 42 15
44 16 84 12 130 -14z"/>
<path d="M3223 699 c-145 -72 -153 -339 -12 -418 51 -29 151 -29 199 0 48 30
64 51 84 117 6 17 3 22 -12 22 -13 0 -25 -14 -37 -41 -24 -52 -66 -81 -126
-87 -84 -8 -145 49 -164 151 l-7 37 176 0 176 0 0 40 c0 147 -148 243 -277
179z m171 -42 c25 -17 66 -91 66 -120 0 -15 -16 -17 -156 -17 l-155 0 6 23
c24 77 72 131 125 139 34 5 85 -7 114 -25z"/>
<path d="M4506 710 c-34 -11 -63 -36 -82 -72 -21 -40 -18 -68 6 -68 13 0 20 7
20 20 0 31 51 80 90 88 89 18 150 -17 150 -86 0 -23 -6 -45 -15 -52 -8 -7 -54
-17 -102 -22 -140 -15 -182 -47 -183 -137 0 -47 4 -57 34 -87 32 -32 38 -34
100 -34 70 0 108 13 140 49 l19 21 18 -30 c14 -23 26 -30 49 -30 20 0 30 5 30
15 0 8 -7 15 -15 15 -27 0 -36 49 -34 198 1 129 -1 148 -19 171 -32 44 -130
63 -206 41z m167 -342 c-31 -53 -66 -72 -132 -73 -50 0 -64 4 -86 25 -22 20
-25 32 -23 69 4 60 30 78 138 92 47 6 92 15 100 19 24 14 26 -92 3 -132z"/>
<path d="M5314 701 c-77 -35 -114 -109 -114 -225 0 -87 23 -142 76 -182 34
-27 44 -29 120 -29 68 0 87 4 110 21 39 28 63 63 70 102 6 28 4 32 -14 32 -14
0 -22 -9 -27 -29 -11 -53 -79 -101 -143 -101 -73 0 -151 81 -152 158 l0 32
176 0 177 0 -7 51 c-8 57 -33 114 -63 141 -53 48 -140 60 -209 29z m173 -53
c30 -28 44 -52 54 -95 l7 -33 -154 0 c-132 0 -154 2 -154 15 0 24 35 87 63
114 49 45 136 44 184 -1z"/>
<path d="M5744 710 c-92 -29 -112 -151 -32 -200 17 -10 68 -27 111 -36 94 -21
137 -50 137 -95 0 -51 -55 -89 -131 -89 -69 0 -139 53 -139 106 0 17 -6 24
-20 24 -51 0 -5 -110 60 -142 43 -22 147 -24 194 -4 71 30 97 107 57 172 -21
34 -64 53 -173 74 -97 19 -136 80 -84 129 68 64 203 34 220 -50 4 -21 11 -29
27 -29 19 0 21 4 15 32 -8 40 -29 73 -61 94 -30 19 -137 28 -181 14z"/>
<path d="M2760 491 c0 -210 1 -219 20 -224 20 -5 20 0 20 219 0 217 -1 224
-20 224 -19 0 -20 -7 -20 -219z"/>
<path d="M2894 697 c-2 -7 -3 -107 -2 -222 3 -202 4 -210 23 -210 19 0 20 8
25 156 4 127 8 160 23 182 23 36 74 67 110 67 20 0 27 5 27 20 0 40 -100 14
-140 -38 l-20 -25 0 42 c0 35 -3 41 -20 41 -11 0 -23 -6 -26 -13z"/>
<path d="M4280 486 c0 -208 1 -224 18 -222 15 3 17 22 20 224 2 217 2 222 -18
222 -19 0 -20 -6 -20 -224z"/>
<path d="M4832 488 c3 -195 5 -221 19 -223 15 -3 17 15 21 144 3 124 7 153 24
182 25 43 78 79 115 79 22 0 29 5 29 20 0 39 -74 22 -134 -30 l-36 -32 0 41
c0 34 -3 41 -20 41 -20 0 -20 -5 -18 -222z"/>
<path d="M5090 486 c0 -208 1 -224 18 -222 15 3 17 22 20 224 2 217 2 222 -18
222 -19 0 -20 -6 -20 -224z"/>
<path d="M420 566 c0 -66 4 -117 10 -121 6 -4 10 15 10 50 0 31 5 65 10 75 16
30 46 43 70 30 17 -9 20 -21 20 -80 0 -38 5 -72 10 -75 15 -9 13 148 -2 163
-15 15 -74 16 -83 2 -13 -22 -25 -8 -25 30 0 22 -4 40 -10 40 -6 0 -10 -45
-10 -114z"/>
<path d="M340 645 c0 -16 -6 -25 -15 -25 -8 0 -15 -4 -15 -10 0 -5 7 -10 15
-10 12 0 15 -14 15 -68 0 -70 10 -92 42 -92 24 0 23 16 -2 23 -17 4 -20 14
-20 71 0 59 2 66 20 66 11 0 20 5 20 10 0 6 -9 10 -20 10 -15 0 -20 7 -20 25
0 14 -4 25 -10 25 -5 0 -10 -11 -10 -25z"/>
<path d="M611 594 c-46 -58 -13 -154 53 -154 31 0 76 30 76 50 0 17 -19 11
-30 -10 -21 -40 -100 -14 -100 33 0 14 11 17 65 17 57 0 65 2 65 19 0 34 -38
71 -75 71 -24 0 -39 -7 -54 -26z m97 -12 c25 -32 14 -42 -43 -42 -57 0 -68 10
-42 42 23 30 60 30 85 0z"/>
<path d="M955 98 c-9 -59 -3 -93 15 -93 12 0 15 13 15 57 -1 75 -21 99 -30 36z"/>
</g>
</svg>
